<?xml version="1.0" encoding="UTF-8" standalone="no" ?>
<!DOCTYPE svg PUBLIC "-//W3C//DTD SVG 1.1//EN" "http://www.w3.org/Graphics/SVG/1.1/DTD/svg11.dtd">
<svg xmlns="http://www.w3.org/2000/svg" xmlns:xlink="http://www.w3.org/1999/xlink" version="1.1" width="256" height="256" viewBox="0 0 256 256" xml:space="preserve">
<desc>Created with Fabric.js 5.3.0</desc>
<defs>
</defs>
<g transform="matrix(3.1999600005 0 0 3.19996 128 128)" id="0AFWYFcfOLaLA7iMPEhS7"  >
<path style="stroke: none; stroke-width: 1; stroke-dasharray: none; stroke-linecap: butt; stroke-dashoffset: 0; stroke-linejoin: miter; stroke-miterlimit: 4; fill: rgb(247,47,58); fill-rule: nonzero; opacity: 1;"  transform=" translate(0, 0)" d="M -37.7545 7.549 L -26.441499999999998 7.549 C -25.6025 7.549 -24.8495 8.073 -24.569499999999998 8.854000000000001 C -24.293499999999998 9.619000000000002 -23.979499999999998 10.378 -23.6345 11.110000000000001 C -23.281499999999998 11.861 -23.4425 12.765 -24.0355 13.358 L -32.0355 21.358 C -32.4595 21.782 -32.6935 22.346 -32.6935 22.946 C -32.6935 23.546000000000003 -32.4595 24.110000000000003 -32.0355 24.534000000000002 L -24.534499999999998 32.035000000000004 C -24.1105 32.459 -23.546499999999998 32.693000000000005 -22.946499999999997 32.693000000000005 C -22.346499999999995 32.693000000000005 -21.782499999999995 32.459 -21.358499999999996 32.035000000000004 L -13.358499999999996 24.035000000000004 C -12.778499999999996 23.455000000000005 -11.848499999999996 23.287000000000003 -11.110499999999995 23.634000000000004 C -10.377499999999994 23.979000000000003 -9.617499999999994 24.294000000000004 -8.854499999999994 24.568000000000005 C -8.074499999999995 24.849000000000004 -7.549499999999995 25.602000000000004 -7.549499999999995 26.441000000000006 L -7.549499999999995 37.754000000000005 C -7.549499999999995 38.992000000000004 -6.542499999999995 40.00000000000001 -5.304499999999995 40.00000000000001 L 5.303500000000006 40.00000000000001 C 6.541500000000006 40.00000000000001 7.549500000000005 38.99300000000001 7.549500000000005 37.754000000000005 L 7.549500000000005 26.441000000000003 C 7.549500000000005 25.602000000000004 8.073500000000006 24.849000000000004 8.853500000000006 24.568 C 9.617500000000005 24.293000000000003 10.376500000000005 23.979000000000003 11.110500000000005 23.634 C 11.847500000000005 23.287 12.778500000000005 23.455000000000002 13.358500000000006 24.035 L 21.358500000000006 32.035 C 21.782500000000006 32.458999999999996 22.346500000000006 32.693 22.946500000000007 32.693 C 23.54650000000001 32.693 24.11050000000001 32.458999999999996 24.53450000000001 32.035 L 32.035500000000006 24.533999999999995 C 32.459500000000006 24.109999999999996 32.69350000000001 23.545999999999996 32.69350000000001 22.945999999999994 C 32.69350000000001 22.345999999999993 32.46050000000001 21.781999999999993 32.035500000000006 21.357999999999993 L 24.035500000000006 13.357999999999993 C 23.442500000000006 12.764999999999993 23.281500000000005 11.860999999999994 23.634500000000006 11.109999999999992 C 23.978500000000007 10.377999999999993 24.293500000000005 9.618999999999993 24.568500000000007 8.853999999999992 C 24.849500000000006 8.073999999999993 25.602500000000006 7.548999999999992 26.44150000000001 7.548999999999992 L 37.75450000000001 7.548999999999992 C 38.99250000000001 7.548999999999992 40.00050000000001 6.541999999999993 40.00050000000001 5.302999999999992 L 40.00050000000001 -5.304000000000007 C 40.00050000000001 -6.542000000000007 38.99350000000001 -7.550000000000008 37.75450000000001 -7.550000000000008 L 26.440500000000007 -7.550000000000008 C 25.60150000000001 -7.550000000000008 24.84850000000001 -8.074000000000009 24.568500000000007 -8.855000000000008 C 24.292500000000008 -9.620000000000008 23.978500000000007 -10.379000000000008 23.63350000000001 -11.111000000000008 C 23.280500000000007 -11.862000000000007 23.44150000000001 -12.766000000000007 24.03450000000001 -13.359000000000009 L 32.03450000000001 -21.35900000000001 C 32.45850000000001 -21.78300000000001 32.69250000000001 -22.34700000000001 32.69250000000001 -22.94700000000001 C 32.69250000000001 -23.54700000000001 32.45850000000001 -24.11100000000001 32.03450000000001 -24.53500000000001 L 24.533500000000007 -32.03600000000001 C 24.109500000000008 -32.46000000000001 23.545500000000008 -32.69400000000001 22.945500000000006 -32.69400000000001 C 22.345500000000005 -32.69400000000001 21.781500000000005 -32.46000000000001 21.357500000000005 -32.03600000000001 L 13.357500000000005 -24.03600000000001 C 12.777500000000005 -23.45600000000001 11.847500000000005 -23.288000000000007 11.109500000000004 -23.63500000000001 C 10.376500000000004 -23.980000000000008 9.616500000000004 -24.29500000000001 8.853500000000004 -24.56900000000001 C 8.073500000000005 -24.85000000000001 7.548500000000004 -25.60300000000001 7.548500000000004 -26.44200000000001 L 7.548500000000004 -37.75400000000001 C 7.548500000000004 -38.99300000000001 6.5415000000000045 -40.000000000000014 5.303500000000004 -40.000000000000014 L -5.304499999999996 -40.000000000000014 C -6.542499999999997 -40.000000000000014 -7.550499999999996 -38.993000000000016 -7.550499999999996 -37.75400000000001 L -7.550499999999996 -26.44100000000001 C -7.550499999999996 -25.60200000000001 -8.074499999999997 -24.84900000000001 -8.854499999999996 -24.56800000000001 C -9.618499999999996 -24.29300000000001 -10.377499999999996 -23.97900000000001 -11.111499999999996 -23.634000000000007 C -11.848499999999996 -23.287000000000006 -12.779499999999995 -23.45500000000001 -13.359499999999997 -24.035000000000007 L -21.359499999999997 -32.03500000000001 C -21.783499999999997 -32.45900000000001 -22.347499999999997 -32.69300000000001 -22.947499999999998 -32.69300000000001 C -23.5475 -32.69300000000001 -24.1115 -32.45900000000001 -24.5355 -32.03500000000001 L -32.0365 -24.53400000000001 C -32.460499999999996 -24.11000000000001 -32.6945 -23.54600000000001 -32.6945 -22.94600000000001 C -32.6945 -22.346000000000007 -32.4615 -21.782000000000007 -32.0365 -21.358000000000008 L -24.036499999999997 -13.358000000000008 C -23.443499999999997 -12.765000000000008 -23.282499999999995 -11.861000000000008 -23.635499999999997 -11.110000000000007 C -23.979499999999998 -10.378000000000007 -24.294499999999996 -9.619000000000007 -24.569499999999998 -8.854000000000006 C -24.850499999999997 -8.074000000000007 -25.603499999999997 -7.549000000000007 -26.4425 -7.549000000000007 L -37.7545 -7.549000000000007 C -38.9935 -7.549000000000007 -40.0005 -6.542000000000007 -40.0005 -5.3040000000000065 L -40.0005 5.303999999999994 C -40.0005 6.5419999999999945 -38.993500000000004 7.548999999999994 -37.7545 7.548999999999994 z M -0.0005 -12.283 C 6.7835 -12.283 12.282499999999999 -6.784 12.282499999999999 0 C 12.282499999999999 6.784 6.783499999999999 12.283 -0.0005000000000006111 12.283 C -6.7845 12.283 -12.2835 6.784 -12.2835 0 C -12.2835 -6.784 -6.7845 -12.283 -0.0005000000000006111 -12.283 z" stroke-linecap="round" />
</g>
</svg>